<svg width="15" height="15" viewBox="0 0 15 15" fill="none" xmlns="http://www.w3.org/2000/svg">
<path d="M13.6802 3.27654C12.5942 1.48035 10.5647 0.543962 9.68579 0.300293C10.3333 0.864213 11.0521 2.51942 11.3306 3.27654H13.6802Z" fill="white"/>
<path d="M1.30526 11.6944C2.39641 13.4875 4.42847 14.4181 5.30811 14.6593C4.65905 14.0972 3.93554 12.444 3.65492 11.6877L1.30526 11.6944Z" fill="white"/>
<path d="M14.0981 3.90308H11.5657C11.879 4.82206 12.0095 6.42679 12.0356 7.11429H14.9335C15.0171 6.00733 14.4114 4.51225 14.0981 3.90308Z" fill="white"/>
<path d="M0.894828 11.03L3.42725 11.0266C3.11273 10.108 2.98005 8.50349 2.95302 7.81603L0.0551026 7.8199C-0.0269625 8.92697 0.580726 10.4212 0.894828 11.03Z" fill="white"/>
<path d="M10.6258 3.22428C9.81123 0.634425 8.44146 0.0217705 7.8584 0.0391755V3.22428H10.6258Z" fill="white"/>
<path d="M4.37659 11.7213C5.18901 14.3118 6.55828 14.9256 7.14136 14.9087L7.14397 11.7236L4.37659 11.7213Z" fill="white"/>
<path d="M7.15334 3.89001H4.11182C3.73587 4.94475 3.65059 6.52251 3.65494 7.17955H7.15334V3.89001Z" fill="white"/>
<path d="M7.80302 11.053L10.8443 11.0929C11.234 10.0432 11.34 8.46666 11.3443 7.80962L7.84616 7.76375L7.80302 11.053Z" fill="white"/>
<path d="M3.43313 3.91614H0.887652C0.219302 5.04398 0.0174049 6.54428 0 7.15346H2.9893C3.03107 5.30505 3.30259 4.22508 3.43313 3.91614Z" fill="white"/>
<path d="M11.5669 11.0579L14.1123 11.0569C14.7802 9.92877 14.9815 8.42838 14.9987 7.8192L12.0094 7.82039C11.9684 9.66881 11.6973 10.7489 11.5669 11.0579Z" fill="white"/>
<path d="M4.3208 3.23732C5.16668 0.710122 6.57039 0.0261074 7.16651 0L7.17956 3.23732H4.3208Z" fill="white"/>
<path d="M10.6579 11.7261C9.82541 14.2578 8.42535 14.9492 7.82938 14.9785L7.79915 11.7413L10.6579 11.7261Z" fill="white"/>
<path d="M5.28682 0.313232C2.83272 1.06513 1.62743 2.58458 1.33154 3.25032H3.629C3.98406 1.94495 4.88215 0.748356 5.28682 0.313232Z" fill="white"/>
<path d="M9.71196 14.6463C12.1662 13.895 13.3719 12.3758 13.6679 11.7101L11.3705 11.7096C11.0151 13.0149 10.1167 14.2113 9.71196 14.6463Z" fill="white"/>
<path d="M10.8868 3.9292H7.83228V7.14041H11.3568C11.4194 5.9708 11.0696 4.51226 10.8868 3.9292Z" fill="white"/>
<path d="M4.08027 11.0336L7.13477 11.0549L7.15717 7.8438L3.63275 7.81921C3.56194 8.98836 3.90159 10.4493 4.08027 11.0336Z" fill="white"/>
</svg>
